<?xml version="1.0" standalone="no"?>
<!DOCTYPE svg PUBLIC "-//W3C//DTD SVG 1.1//EN" "http://www.w3.org/Graphics/SVG/1.1/DTD/svg11.dtd" >
<svg xmlns="http://www.w3.org/2000/svg">
<metadata></metadata>
<defs>
<font id="designkotflight" horiz-adv-x="1144" >
<font-face units-per-em="2048" ascent="1638" descent="-410" />
<missing-glyph horiz-adv-x="573" />
<glyph horiz-adv-x="0" />
<glyph horiz-adv-x="682" />
<glyph horiz-adv-x="573" />
<glyph unicode=" "  horiz-adv-x="573" />
<glyph unicode="&#x09;" horiz-adv-x="573" />
<glyph unicode="&#xa0;" horiz-adv-x="573" />
<glyph horiz-adv-x="573" />
<glyph horiz-adv-x="573" />
<glyph horiz-adv-x="573" />
<glyph horiz-adv-x="573" />
<glyph horiz-adv-x="573" />
<glyph horiz-adv-x="573" />
<glyph horiz-adv-x="573" />
<glyph horiz-adv-x="573" />
<glyph horiz-adv-x="573" />
<glyph horiz-adv-x="573" />
<glyph horiz-adv-x="573" />
<glyph horiz-adv-x="573" />
<glyph horiz-adv-x="573" />
<glyph horiz-adv-x="573" />
<glyph horiz-adv-x="573" />
<glyph horiz-adv-x="573" />
<glyph horiz-adv-x="573" />
<glyph horiz-adv-x="573" />
<glyph unicode="&#xd;" horiz-adv-x="573" />
<glyph horiz-adv-x="573" />
<glyph horiz-adv-x="573" />
<glyph unicode="&#xa;" horiz-adv-x="573" />
<glyph unicode="&#x9;" horiz-adv-x="573" />
<glyph horiz-adv-x="573" />
<glyph horiz-adv-x="573" />
<glyph horiz-adv-x="573" />
<glyph horiz-adv-x="573" />
<glyph horiz-adv-x="573" />
<glyph horiz-adv-x="573" />
<glyph horiz-adv-x="573" />
<glyph unicode="!" horiz-adv-x="591" d="M248 371l-23 1118h146l-25 -1118h-98zM223 0v193h142v-193h-142z" />
<glyph unicode="&#x22;" horiz-adv-x="761" d="M141 1040v449h131v-449h-131zM492 1040v449h131v-449h-131z" />
<glyph unicode="#" horiz-adv-x="1249" d="M684 16l74 463h-344l-76 -463h-117l76 463h-234v117h254l52 313h-250v117h270l72 438h117l-72 -438h340l72 438h116l-71 -438h227v-117h-246l-51 -313h242v-117h-261l-73 -463h-117zM485 909l-51 -313h342l51 313h-342z" />
<glyph unicode="$" horiz-adv-x="1187" d="M559 -145v186q-224 4 -438 65v95q233 -47 438 -47v561q-116 29 -194.5 58.5t-144 74t-97 107.5t-31.5 147q0 330 467 342v147h86v-147q181 -6 375 -62v-90q-195 39 -375 45v-520q116 -31 191 -59.5t140 -71t95.5 -101t30.5 -136.5q0 -190 -119.5 -293.5t-337.5 -114.5 v-186h-86zM963 444q0 53 -21 92.5t-65.5 68.5t-97.5 48.5t-134 40.5v-538q162 11 240 80t78 208zM229 1108q0 -44 8 -77.5t29 -59.5t43.5 -43.5t66 -34t80.5 -27.5t103 -28v499q-171 -4 -250.5 -60t-79.5 -169z" />
<glyph unicode="%" horiz-adv-x="1808" d="M422 692q-148 0 -236 103.5t-88 287.5q0 183 90 294.5t234 111.5q143 0 232 -111.5t89 -294.5q0 -184 -86.5 -287.5t-234.5 -103.5zM346 -33l989 1546h113l-987 -1546h-115zM422 797q196 0 196 295q0 288 -196 288q-197 0 -197 -288q0 -149 51.5 -222t145.5 -73zM1391 -2 q-148 0 -236 103.5t-88 287.5q0 183 90 294.5t234 111.5q143 0 232 -111.5t89 -294.5q0 -182 -87 -286.5t-234 -104.5zM1391 102q196 0 196 295q0 289 -196 289q-197 0 -197 -289q0 -295 197 -295z" />
<glyph unicode="&#x26;" horiz-adv-x="1357" d="M592 -14q-237 0 -370.5 101t-133.5 292q0 277 350 446q-82 100 -118.5 178t-36.5 162q0 169 100.5 251.5t259.5 82.5q156 0 247 -79.5t91 -223.5q0 -74 -26 -137t-76 -113t-107 -88t-133 -76l381 -444q85 148 110 364h95q-8 -121 -44 -240.5t-94 -203.5l209 -248h-155 l-131 152q-165 -176 -418 -176zM590 96q211 3 352 144l-432 499q-281 -146 -289 -338q-5 -142 91.5 -224t277.5 -81zM412 1176q0 -122 108 -252l47 -58q63 31 106 58t89.5 67t70 90.5t23.5 110.5q0 100 -53.5 153.5t-161.5 53.5q-229 0 -229 -223z" />
<glyph unicode="'" horiz-adv-x="428" d="M150 1040v449h133v-449h-133z" />
<glyph unicode="(" horiz-adv-x="716" d="M625 -182h-88q-173 173 -280 403t-107 504q0 143 30.5 277t85.5 246.5t121.5 205.5t149.5 176h88q-155 -185 -250.5 -417t-95.5 -470v-18q0 -236 96.5 -478t249.5 -429z" />
<glyph unicode=")" horiz-adv-x="716" d="M94 -182h88q173 173 280 403t107 504q0 143 -30.5 277t-85.5 246.5t-121.5 205.5t-149.5 176h-88q155 -185 250.5 -417t95.5 -470v-18q0 -236 -96.5 -478t-249.5 -429z" />
<glyph unicode="*" horiz-adv-x="796" d="M356 971l11 256l-209 -135l-54 84l218 110l-211 109l45 88l213 -140l-13 263h93l-11 -263l205 140l47 -88l-215 -109l217 -110l-49 -84l-205 135l11 -256h-93z" />
<glyph unicode="+" horiz-adv-x="1085" d="M483 307v398h-377v102h377v395h119v-395h377v-102h-377v-398h-119z" />
<glyph unicode="," horiz-adv-x="532" d="M106 -244l125 457h146l-178 -457h-93z" />
<glyph unicode="-" horiz-adv-x="1085" d="M154 485v113h778v-113h-778z" />
<glyph unicode="." horiz-adv-x="532" d="M195 0v193h141v-193h-141z" />
<glyph unicode="/" horiz-adv-x="819" d="M111 -156l491 1760h131l-493 -1760h-129z" />
<glyph unicode="0" horiz-adv-x="1228" d="M616 -23q-534 0 -534 754q0 167 26 298t72.5 219t114.5 146t147.5 83.5t175.5 25.5q120 0 214 -42t166 -131t110.5 -240.5t38.5 -358.5q0 -754 -531 -754zM616 90q202 0 291.5 153t89.5 488q0 329 -90.5 494.5t-288.5 165.5q-204 0 -295.5 -165t-91.5 -495 q0 -334 91 -487.5t294 -153.5z" />
<glyph unicode="1" horiz-adv-x="1228" d="M645 0v1358l-285 -49v100l426 100v-1509h-141z" />
<glyph unicode="2" horiz-adv-x="1228" d="M152 0v137l356 334q177 179 265.5 321.5t88.5 280.5q0 83 -17 138.5t-59 95t-112.5 57.5t-177.5 18q-165 -3 -330 -45v97q83 26 186 45.5t174 19.5q247 0 365.5 -99.5t118.5 -309.5q0 -91 -24 -173t-77 -165.5t-123.5 -163t-177.5 -182.5l-311 -293h778l-43 -113h-880z " />
<glyph unicode="3" horiz-adv-x="1228" d="M1020 1149q0 -264 -287 -363q348 -65 348 -393q-3 -413 -489 -413q-222 0 -447 63v92q211 -41 416 -41q194 0 282 73t93 226q0 77 -23 134t-63 93t-102 58t-132 30.5t-161 8.5h-60v110h60q61 0 117 8.5t113 30.5t98.5 56.5t67.5 91t26 129.5q0 119 -73 177t-243 64 q-217 0 -364 -43v95q82 26 185.5 44.5t178.5 18.5q459 0 459 -350z" />
<glyph unicode="4" horiz-adv-x="1228" d="M793 0v324h-742v147l678 1018h199v-1053h289l-39 -112h-250v-324h-135zM172 436h621v934z" />
<glyph unicode="5" horiz-adv-x="1228" d="M924 436q0 108 -22.5 176t-77.5 107.5t-133.5 54t-203.5 14.5q-135 0 -270 -12l37 713h788l-45 -111h-606l-26 -491q106 14 210 14q248 0 372 -114t124 -351q0 -223 -119 -338.5t-348 -115.5q-231 0 -448 61v100q238 -49 417 -49q351 0 351 342z" />
<glyph unicode="6" horiz-adv-x="1228" d="M635 90q100 0 168.5 25t107 75t54.5 114t16 151q0 101 -19 166.5t-63.5 103t-107 52t-158.5 14.5q-167 0 -381 -84v-23q0 -86 4 -152t14.5 -130t29 -110.5t47.5 -86t69 -64t94.5 -38t124.5 -13.5zM254 856v-51q96 47 218 73.5t218 26.5q215 0 325.5 -109.5t110.5 -320.5 q0 -230 -124.5 -364t-364.5 -134q-280 0 -407.5 177.5t-127.5 527.5q0 120 10.5 221.5t28.5 178.5t46.5 138.5t60 104.5t72.5 74.5t80.5 50t89 29.5t92.5 14.5t96 3.5q148 0 360 -57v-94q-196 45 -327 45q-19 0 -82 -5q-68 -8 -118.5 -23.5t-100.5 -52t-82 -93t-52 -147.5 t-22 -214z" />
<glyph unicode="7" horiz-adv-x="1228" d="M291 0l655 1366h-799v117h934v-137l-641 -1346h-149z" />
<glyph unicode="8" horiz-adv-x="1228" d="M608 -27q-249 0 -390.5 110.5t-141.5 289.5q0 263 379 393q-334 141 -334 373q0 167 129.5 267.5t355.5 100.5q225 0 356.5 -101t131.5 -267q0 -120 -84.5 -216t-235.5 -157q80 -29 143.5 -63.5t119 -81.5t86 -110t30.5 -138q0 -177 -143.5 -288.5t-401.5 -111.5zM614 84 q190 0 293 80.5t103 208.5q0 125 -112.5 215.5t-283.5 126.5q-174 -33 -283.5 -124.5t-109.5 -217.5q0 -135 104 -212t289 -77zM616 819q174 57 252 127.5t78 192.5q0 120 -84.5 189t-247.5 69q-168 0 -257 -69t-89 -189q0 -122 82.5 -192.5t265.5 -127.5z" />
<glyph unicode="9" horiz-adv-x="1228" d="M594 1384q-100 0 -168.5 -26.5t-107 -79.5t-54.5 -120t-16 -159q0 -199 80 -277.5t268 -78.5q167 0 381 84v43q0 101 -5.5 177t-20.5 149t-42.5 123t-69.5 89t-103 57.5t-142 18.5zM975 618v11q-97 -47 -219 -74t-217 -27q-213 0 -325 118.5t-112 332.5q0 239 125 378.5 t365 139.5q280 0 407 -177t127 -527q0 -154 -17.5 -277t-46 -207.5t-73 -146t-91 -96.5t-108.5 -55.5t-116 -27t-123 -6.5q-145 0 -361 58v94q196 -45 328 -45q32 0 82 4q69 8 120 23.5t100 52t80 93t51.5 147.5t23.5 214z" />
<glyph unicode=":" horiz-adv-x="546" d="M209 0v193h141v-193h-141zM209 883v192h141v-192h-141z" />
<glyph unicode=";" horiz-adv-x="503" d="M61 -244l119 457h160l-172 -457h-107zM188 883v192h142v-192h-142z" />
<glyph unicode="&#x3c;" horiz-adv-x="1085" d="M930 199l-774 489v131l774 490v-127l-678 -428l678 -428v-127z" />
<glyph unicode="=" horiz-adv-x="1085" d="M104 901v109h877v-109h-877zM104 500v110h877v-110h-877z" />
<glyph unicode="&#x3e;" horiz-adv-x="1085" d="M156 199l774 489v131l-774 490v-127l678 -428l-678 -428v-127z" />
<glyph unicode="?" horiz-adv-x="962" d="M344 0v193h141v-193h-141zM360 371v82q0 42 11.5 80.5t26 66t48 64t57 58t72.5 64.5q160 152 160 326q0 153 -74.5 226t-242.5 73q-143 0 -316 -45v92q208 66 363 66q174 0 287.5 -91.5t113.5 -263.5q0 -150 -50 -257t-167 -210q-9 -8 -34.5 -31t-33.5 -30t-27.5 -26 t-26 -27.5l-19.5 -25.5t-17.5 -29t-11 -29t-8.5 -34.5t-2 -37.5v-61h-109z" />
<glyph unicode="@" horiz-adv-x="1867" d="M932 -381q-387 0 -600 201t-213 565q0 146 36 283.5t110.5 258.5t179.5 212t252.5 143.5t320.5 52.5q218 0 384.5 -93t254.5 -255.5t88 -368.5q0 -289 -118.5 -450.5t-332.5 -161.5q-88 0 -136 29t-68 100q-56 -56 -138.5 -92.5t-148.5 -36.5q-129 0 -201 89.5t-72 244.5 q0 266 115 424t311 158q58 0 128 -30t130 -77q3 12 8.5 42.5t8.5 43.5h117l-121 -659q-5 -52 17.5 -84.5t78.5 -32.5q142 0 220.5 124.5t78.5 354.5q0 282 -154.5 451.5t-451.5 169.5q-149 0 -275 -43.5t-216.5 -120.5t-154.5 -182.5t-95 -230t-31 -261.5q0 -309 175.5 -485 t514.5 -176q192 0 446 86v-105q-256 -88 -448 -88zM848 115q113 0 244 114q13 69 92 502q-34 30 -101 53t-122 23q-99 0 -166 -62.5t-96 -163.5t-29 -237q0 -102 47.5 -165.5t130.5 -63.5z" />
<glyph unicode="A" horiz-adv-x="1333" d="M1141 0l-140 403h-669l-137 -403h-140l516 1489h193l516 -1489h-139zM668 1380l-297 -866h594z" />
<glyph unicode="B" horiz-adv-x="1316" d="M156 1489h559q236 0 339 -96t103 -297q-3 -226 -211 -328q59 -21 102 -49t79.5 -70t55.5 -104t19 -142q0 -403 -465 -403h-581v1489zM295 811h405q162 0 236 72.5t74 212.5q0 151 -79.5 216.5t-230.5 65.5h-405v-567zM295 111h450q310 0 310 292q0 297 -310 297h-450 v-589z" />
<glyph unicode="C" horiz-adv-x="1189" d="M1108 150v-99q-217 -61 -420 -61q-121 0 -216.5 36.5t-161.5 102t-109.5 160t-63.5 207t-20 247.5q0 760 571 760q226 0 420 -61v-94q-198 41 -381 41q-241 0 -352 -164t-111 -482q0 -639 465 -639q142 0 379 46z" />
<glyph unicode="D" horiz-adv-x="1378" d="M678 0h-522v1489h522q135 0 235 -33t165 -92t104 -150.5t55 -197.5t16 -244q0 -102 -7.5 -186.5t-25 -165.5t-46.5 -143.5t-73.5 -115.5t-104 -88t-139.5 -54t-179 -19zM1106 772q0 82 -5 147t-17.5 129.5t-34 112.5t-56 90t-81.5 68.5t-111.5 41.5t-145.5 15h-360v-1263 h360q112 0 194 35t130.5 92t77.5 145t39 178.5t10 208.5z" />
<glyph unicode="E" horiz-adv-x="1230" d="M156 0v1489h974v-113h-833v-565h799l-41 -115h-758v-583h833v-113h-974z" />
<glyph unicode="F" horiz-adv-x="1171" d="M156 0v1489h936v-113h-797v-563h731l-41 -115h-690v-698h-139z" />
<glyph unicode="G" horiz-adv-x="1396" d="M649 788h594v-788h-139v82q-84 -37 -199 -66q-107 -26 -209 -26q-123 0 -220.5 36t-164.5 101.5t-111.5 160t-64.5 209t-20 251.5q0 366 139 560.5t442 194.5q244 0 453 -61v-94q-239 51 -426 43q-242 -10 -351.5 -165.5t-109.5 -477.5q0 -317 114.5 -482.5t346.5 -165.5 q90 0 192 27q106 26 189 51v500h-455v110z" />
<glyph unicode="H" horiz-adv-x="1404" d="M1110 0v698h-815v-698h-139v1489h139v-674h815v674h139v-1489h-139z" />
<glyph unicode="I" horiz-adv-x="495" d="M178 0v1489h141v-1489h-141z" />
<glyph unicode="J" horiz-adv-x="808" d="M506 1489h141v-1204q0 -139 -62.5 -214.5t-203.5 -82.5q-50 -4 -157.5 6.5t-176.5 25.5v101q122 -24 246 -27q119 0 166 48t47 175v1172z" />
<glyph unicode="K" horiz-adv-x="1294" d="M164 0v1489h137v-680l741 680h175l-787 -731l797 -758h-180l-746 709v-709h-137z" />
<glyph unicode="L" horiz-adv-x="1105" d="M1006 0h-850v1489h139v-1376h754z" />
<glyph unicode="M" horiz-adv-x="1742" d="M967 57h-193l-481 1313v-1370h-133v1489h231l479 -1323l484 1323h229v-1489h-131v1370z" />
<glyph unicode="N" horiz-adv-x="1437" d="M160 0v1489h211l776 -1374v1374h131v-1489h-211l-778 1368v-1368h-129z" />
<glyph unicode="O" horiz-adv-x="1406" d="M700 100q125 0 209.5 36.5t136.5 116t74.5 196t22.5 286.5q0 333 -101 495.5t-342 162.5q-238 0 -337 -160.5t-99 -497.5q0 -333 98 -484t338 -151zM700 -10q-161 0 -273 46t-180.5 141.5t-99 231t-30.5 326.5q0 192 30 331t97.5 239t180.5 149t275 49t275.5 -49 t182 -149t99.5 -239t31 -331q0 -193 -30.5 -329t-99.5 -231t-182 -140t-276 -45z" />
<glyph unicode="P" horiz-adv-x="1314" d="M733 481h-438v-481h-139v1489h577q469 0 469 -500q0 -508 -469 -508zM295 594h412q178 0 263 98.5t85 296.5q0 193 -85 290t-263 97h-412v-782z" />
<glyph unicode="Q" horiz-adv-x="1406" d="M700 -10q-161 0 -273 46t-180.5 141.5t-99 231t-30.5 326.5q0 192 30 331t97.5 239t180.5 149t275 49t275.5 -49t182 -149t99.5 -239t31 -331q0 -291 -73 -461t-238 -239q-23 -10 -41 -15l244 -299h-164l-219 273q-62 -4 -97 -4zM700 100q125 0 209.5 36.5t136.5 116 t74.5 196t22.5 286.5q0 333 -101 495.5t-342 162.5q-238 0 -337 -160.5t-99 -497.5q0 -333 98 -484t338 -151z" />
<glyph unicode="R" horiz-adv-x="1337" d="M729 543h-436v-543h-137v1489h575q244 0 360.5 -112.5t116.5 -356.5q0 -250 -125 -363q-71 -65 -172 -92l318 -565h-158l-299 543h-43zM293 655h412q356 0 356 365q0 185 -86.5 270.5t-267.5 85.5h-414v-721z" />
<glyph unicode="S" horiz-adv-x="1167" d="M1010 1436v-97q-252 52 -389 54q-77 0 -141 -12t-121.5 -39t-90 -80t-32.5 -127q0 -43 8.5 -77t22 -60.5t41 -49t56 -39t75.5 -33t91.5 -29.5t112.5 -30q112 -30 188.5 -62.5t136.5 -79t88.5 -110t28.5 -147.5q0 -210 -134.5 -321.5t-370.5 -106.5q-243 3 -455 65v99 q290 -54 453 -54q190 0 281 77.5t91 236.5q0 48 -18.5 87t-49.5 68t-82 53.5t-106.5 42.5t-132.5 37q-112 28 -191 61.5t-143 83t-95.5 120t-31.5 163.5q0 177 125 275t375 98q207 -3 410 -67z" />
<glyph unicode="T" horiz-adv-x="1325" d="M57 1374v115h1231l-41 -115h-516v-1374h-139v1374h-535z" />
<glyph unicode="U" horiz-adv-x="1384" d="M297 1489v-1026q0 -183 105 -271t290 -88q188 0 291.5 88t103.5 271v1026h142v-1028q0 -246 -135.5 -358.5t-401.5 -112.5q-264 0 -400 113t-136 358v1028h141z" />
<glyph unicode="V" horiz-adv-x="1349" d="M1157 1489h141l-526 -1489h-192l-529 1489h142l483 -1380z" />
<glyph unicode="W" horiz-adv-x="1908" d="M860 1489h193l368 -1378l308 1378h141l-354 -1489h-191l-369 1370l-368 -1370h-191l-354 1489h141l308 -1376z" />
<glyph unicode="X" horiz-adv-x="1310" d="M55 0l520 743l-522 746h160l442 -633l443 633h155l-520 -744l522 -745h-159l-443 633l-444 -633h-154z" />
<glyph unicode="Y" horiz-adv-x="1314" d="M731 659v-659h-143v659l-535 830h154l452 -709l451 709h154z" />
<glyph unicode="Z" horiz-adv-x="1220" d="M125 1374v115h960v-137l-811 -1237h846l-43 -115h-938v139l811 1235h-825z" />
<glyph unicode="[" horiz-adv-x="694" d="M612 1616v-113h-342v-1562h342v-109h-469v1784h469z" />
<glyph unicode="\" horiz-adv-x="819" d="M733 -156l-491 1760h-131l493 -1760h129z" />
<glyph unicode="]" horiz-adv-x="694" d="M82 1616v-113h342v-1562h-342v-109h469v1784h-469z" />
<glyph unicode="^" horiz-adv-x="1161" d="M913 776l-338 604l-327 -604h-125l389 713h127l399 -713h-125z" />
<glyph unicode="_" horiz-adv-x="1120" d="M84 -223h952v-101h-952v101z" />
<glyph unicode="`" horiz-adv-x="528" d="M373 1044l-74 445h-149l131 -445h92z" />
<glyph unicode="a" d="M868 0v111q-133 -74 -239.5 -99.5t-216.5 -25.5q-144 0 -230 82t-86 233q0 120 54.5 201t187.5 123q76 25 194 36t328 11v55q0 67 -17.5 113.5t-47 74t-83 42.5t-110 19.5t-143.5 4.5q-127 -4 -266 -27v95q184 38 374 38q196 0 315 -80t119 -237v-770h-133zM504 88 q84 0 180 32.5t176 84.5v377q-285 0 -436 -43q-89 -28 -133.5 -79.5t-44.5 -144.5q0 -227 258 -227z" />
<glyph unicode="b" horiz-adv-x="1175" d="M643 1085q-127 0 -356 -75v532l-142 -41v-1501h142v88q117 -54 197.5 -76t158.5 -22q120 0 205 38.5t134.5 112.5t72 172t22.5 228q0 265 -101 404.5t-333 139.5zM287 188v717q191 70 331 70q74 0 129.5 -22t89.5 -59t55 -93.5t28.5 -118.5t7.5 -141q0 -82 -7.5 -145.5 t-28 -122t-54.5 -96.5t-89.5 -60.5t-130.5 -22.5q-112 0 -331 94z" />
<glyph unicode="c" horiz-adv-x="976" d="M563 1087q157 0 326 -57v-88q-134 35 -268 35q-107 0 -182 -29.5t-118 -88t-62 -136t-19 -182.5q0 -114 19 -194.5t63 -139t119 -87t184 -28.5q131 0 280 37v-88q-159 -57 -346 -57q-232 0 -347.5 147t-115.5 410q0 255 116.5 400.5t350.5 145.5z" />
<glyph unicode="d" horiz-adv-x="1175" d="M535 1085q127 0 356 -75v491l141 41v-1542h-141v88q-117 -54 -197.5 -76t-158.5 -22q-120 0 -205 38.5t-135 112.5t-72.5 172t-22.5 228q0 265 101.5 404.5t333.5 139.5zM891 188v717q-191 70 -332 70q-74 0 -129.5 -22t-89.5 -59t-54.5 -94t-28 -118.5t-7.5 -140.5 q0 -82 7.5 -145.5t28 -122t54 -96.5t89 -60.5t130.5 -22.5q113 0 332 94z" />
<glyph unicode="e" d="M592 92q220 0 409 53v-94q-195 -65 -430 -65q-251 0 -362 131t-111 409q0 293 125 427t361 134q463 0 463 -522q0 -55 -3 -96h-804q4 -99 22 -166.5t58 -116.5t106.5 -71.5t165.5 -22.5zM240 567h671q-5 219 -78.5 316.5t-248.5 97.5q-181 0 -256.5 -96.5t-87.5 -317.5z " />
<glyph unicode="f" horiz-adv-x="849" d="M823 1409v92q-160 49 -276 41q-69 -4 -120 -30t-80.5 -70t-43.5 -99t-14 -122v-168h-252v-115h252v-938h141v938h354v115h-354v172q0 117 40 164t161 47q78 0 192 -27z" />
<glyph unicode="g" horiz-adv-x="1169" d="M887 879v-656q-209 -78 -340 -78q-71 0 -124 21t-86 57t-53.5 91t-28 116t-7.5 139q0 102 12.5 171.5t45.5 123.5t92.5 79.5t150.5 25.5q83 0 159 -23t179 -67zM535 39q164 0 352 88v-162q0 -49 -9 -86.5t-24.5 -64t-42.5 -45.5t-56.5 -30t-74 -17.5t-87.5 -8.5t-104 -2 q-105 0 -264 31v-100q189 -39 367 -39q197 0 315.5 81t118.5 238v1153h-139v-98q-193 99 -350 102q-233 0 -336 -126t-103 -384q0 -262 102 -396t335 -134z" />
<glyph unicode="h" horiz-adv-x="1200" d="M285 0h-140v1499l140 41v-569q112 52 241 90q112 32 226 29q140 -6 222.5 -92.5t82.5 -223.5v-774h-142v774q0 104 -65 154.5t-174 50.5q-99 0 -285 -74q-21 -8 -58.5 -23.5t-47.5 -19.5v-862z" />
<glyph unicode="i" horiz-adv-x="473" d="M164 0v1075h141v-1075h-141zM164 1296v193h141v-193h-141z" />
<glyph unicode="j" horiz-adv-x="471" d="M166 1075h139v-1132q0 -70 -14.5 -127.5t-45 -104t-83.5 -73.5t-125 -31q-128 -3 -232 22v92q96 -14 142 -16q121 -6 170 38t49 157v1175zM164 1296v193h141v-193h-141z" />
<glyph unicode="k" horiz-adv-x="1081" d="M293 0h-139v1499l139 41v-938l545 473h180l-604 -522l608 -553h-176l-553 500v-500z" />
<glyph unicode="l" horiz-adv-x="473" d="M168 0v1501l141 41v-1542h-141z" />
<glyph unicode="m" horiz-adv-x="1892" d="M287 0h-140v1055l140 41v-119q53 24 102 45q179 70 332 70t229 -91l19 -24q133 58 235 84q118 31 238 31q149 0 226 -87.5t77 -230.5v-774h-139v774q0 110 -59.5 160.5t-180.5 50.5q-109 0 -287 -70q-12 -5 -35 -14t-34 -14q16 -56 16 -113v-774h-141v774 q0 110 -59.5 160.5t-180.5 50.5q-59 0 -164 -31q-79 -23 -194 -69v-885z" />
<glyph unicode="n" horiz-adv-x="1198" d="M285 0h-140v1055l140 41v-129q112 52 241 90q109 31 226 28q140 -6 222.5 -92t82.5 -223v-770h-142v770q0 107 -64.5 157t-174.5 50q-83 0 -285 -72q-21 -8 -58.5 -23.5t-47.5 -19.5v-862z" />
<glyph unicode="o" horiz-adv-x="1165" d="M586 -14q245 0 363 140.5t118 397.5q0 272 -117.5 417.5t-363.5 145.5q-248 0 -368 -146t-120 -417q0 -256 120.5 -397t367.5 -141zM588 983q154 0 243 -113.5t89 -345.5q0 -227 -88.5 -331.5t-243.5 -104.5q-166 0 -254 103.5t-88 332.5q0 234 89 346.5t253 112.5z" />
<glyph unicode="p" horiz-adv-x="1173" d="M643 -4q-143 0 -356 67v-423l-142 -41v1456l142 41v-105q207 98 356 101q120 0 205 -37t134.5 -109.5t72 -168.5t22.5 -224q0 -130 -22.5 -228.5t-72 -174t-134.5 -115t-205 -39.5zM287 895v-729q173 -65 331 -68q74 0 129.5 24.5t89.5 64.5t55 100t28.5 123.5t7.5 142.5 q0 81 -7.5 143t-27.5 118.5t-54 92.5t-88.5 57t-129.5 21q-135 0 -334 -90z" />
<glyph unicode="q" horiz-adv-x="1173" d="M532 -4q144 0 357 67v-464l141 41v1435h-141v-84q-207 98 -357 101q-120 0 -205 -37t-134.5 -109.5t-72 -168.5t-22.5 -224q0 -130 22.5 -228.5t72 -174t134.5 -115t205 -39.5zM889 895v-729q-172 -65 -332 -68q-74 0 -129.5 24.5t-89 64.5t-54.5 100t-28.5 123.5 t-7.5 142.5q0 81 7.5 143t27.5 118.5t54 92.5t88.5 57t129.5 21q135 0 334 -90z" />
<glyph unicode="r" horiz-adv-x="862" d="M285 0h-142v1053l142 41v-107q108 50 237 76q148 28 279 16v-114q-187 20 -404 -39q-54 -14 -112 -37v-889z" />
<glyph unicode="s" horiz-adv-x="1024" d="M885 1036v-94q-218 43 -387 43q-265 0 -265 -162q0 -92 65.5 -135t238.5 -78q210 -42 307.5 -118t97.5 -209q0 -297 -448 -297q-73 0 -190 16.5t-189 36.5v94q198 -45 360 -45q175 0 253.5 44t78.5 144q0 34 -5 58t-20 45t-35 35t-59 28.5t-82.5 26t-113.5 27.5 q-211 48 -302.5 116t-91.5 199q0 75 32 131.5t87.5 88.5t125 46.5t151.5 12.5q184 -6 391 -54z" />
<glyph unicode="t" horiz-adv-x="880" d="M827 111v-99q-164 -43 -280 -35q-258 19 -258 320v653h-258v111h258v328l141 41v-369h361v-111h-361v-659q0 -59 7.5 -95t28.5 -63.5t61 -39t104 -11.5q87 3 196 29z" />
<glyph unicode="u" horiz-adv-x="1198" d="M913 1075h142v-1075h-142v96q-263 -110 -434 -110q-71 0 -130 17t-106 53t-73.5 98t-26.5 145v752l140 41v-809q0 -100 60 -145.5t179 -45.5q58 0 134.5 18t116.5 32t140 51v882z" />
<glyph unicode="v" horiz-adv-x="1073" d="M621 0h-168l-412 1075h127l369 -969l368 969h127z" />
<glyph unicode="w" horiz-adv-x="1679" d="M158 1075h-131l350 -1075h170l293 954l290 -954h170l349 1075h-131l-301 -966l-289 966h-176l-291 -969z" />
<glyph unicode="x" horiz-adv-x="1089" d="M188 1075l357 -444l356 444h152l-432 -538l432 -537h-152l-356 442l-357 -442h-151l432 537l-432 538h151z" />
<glyph unicode="y" horiz-adv-x="1198" d="M901 -31v166q-145 -58 -229 -78q-101 -26 -193 -26q-71 0 -130 17t-106 53t-73.5 98t-26.5 145v711l140 41v-768q0 -100 60 -145.5t179 -45.5q91 0 193 31q132 43 186 63v844h141v-1149q0 -157 -119 -238t-315 -81q-165 0 -354 39v90q135 -23 246 -23q61 0 104.5 2 t88 8.5t74.5 18t57.5 30.5t43 46t24.5 64.5t9 86.5z" />
<glyph unicode="z" horiz-adv-x="1054" d="M117 965v110h827v-123l-692 -839h711l-45 -113h-799v137l692 828h-694z" />
<glyph unicode="{" horiz-adv-x="860" d="M356 53v385q0 120 -52.5 169t-199.5 61v108q147 12 199.5 62t52.5 170v385q0 109 54.5 165t154.5 56h207v-101h-168q-68 0 -97.5 -27.5t-29.5 -90.5v-396q0 -47 -9 -85.5t-31.5 -76t-67.5 -65t-111 -41.5v-10q67 -14 112.5 -42.5t67.5 -67.5t30.5 -76.5t8.5 -83.5v-400 q0 -63 30 -91t97 -28h168v-98h-207q-100 0 -154.5 55.5t-54.5 163.5z" />
<glyph unicode="|" horiz-adv-x="612" d="M236 -168v1784h139v-1784h-139z" />
<glyph unicode="}" horiz-adv-x="860" d="M520 53v385q0 120 52.5 169t199.5 61v108q-147 12 -199.5 62t-52.5 170v385q0 109 -54.5 165t-154.5 56h-207v-101h168q68 0 97.5 -27.5t29.5 -90.5v-396q0 -47 9 -85.5t31.5 -76t67.5 -65t111 -41.5v-10q-67 -14 -112.5 -42.5t-67.5 -67.5t-30.5 -76.5t-8.5 -83.5v-400 q0 -63 -30 -91t-97 -28h-168v-98h207q100 0 154.5 55.5t54.5 163.5z" />
<glyph unicode="~" horiz-adv-x="946" d="M106 680l-53 37q33 89 100 133.5t144 44.5q93 0 211 -102q5 -3 23 -15.5t26 -17.5t25.5 -14t30.5 -13t32 -7t39 -3q27 1 57 21.5t46.5 39t43.5 52.5l54 -39q-40 -92 -103.5 -135.5t-128.5 -43.5q-34 1 -70 16t-57.5 29t-58.5 42q-99 83 -188 83q-37 0 -72.5 -19 t-55 -38.5t-45.5 -50.5z" />
<glyph unicode="&#xa1;" horiz-adv-x="591" d="M244 715l-23 -1118h150l-25 1118h-102zM223 1075v-192h142v192h-142z" />
<glyph unicode="&#xa2;" horiz-adv-x="1146" d="M608 -223v215q-278 10 -403 151t-125 398q0 248 125 387t403 151v211h86v-209q82 -3 182 -19t168 -38v-88q-134 35 -329 35h-21v-873h25q193 0 342 37v-88q-135 -49 -367 -57v-213h-86zM213 541q0 -104 18 -177t62.5 -130.5t122 -89.5t192.5 -42v863 q-114 -10 -192.5 -42.5t-122 -89t-62 -126.5t-18.5 -166z" />
<glyph unicode="&#xa3;" horiz-adv-x="1228" d="M436 805h467v-109h-448q22 -93 22 -164q0 -213 -192 -413h854l-45 -119h-973v123q105 67 167 181t62 245q0 59 -20 147h-209v109h176q-3 14 -14 50.5t-13 45.5q-13 48 -18 67t-9.5 54t-4.5 76q0 198 125.5 301.5t332.5 103.5q215 0 404 -76v-100q-168 60 -371 66 q-57 0 -106 -7.5t-96 -26t-80 -48t-53.5 -77t-20.5 -108.5q0 -110 63 -321z" />
<glyph unicode="&#xa4;" horiz-adv-x="1433" d="M1090 1141l210 209l68 -68l-229 -201q102 -142 102 -333q0 -198 -115 -351l234 -217l-60 -67l-223 227q-81 -73 -178 -112t-194 -35q-110 5 -197 36.5t-162 100.5l-215 -215l-63 65l227 205q-123 155 -123 358q0 105 28.5 185t86.5 157l-219 199l63 66l205 -201 q152 145 371 145q126 -4 215.5 -42.5t167.5 -110.5zM1151 745q0 125 -57.5 229.5t-160 166t-226.5 61.5q-188 0 -316.5 -133t-128.5 -326q0 -133 63 -239.5t164 -162.5t216 -56q119 0 220 55.5t163.5 162t62.5 242.5z" />
<glyph unicode="&#xa5;" horiz-adv-x="1433" d="M145 666v112h441l-459 711h154l440 -688l420 688h153l-438 -711h428v-112h-491v-168h491v-113h-491v-385h-144v385h-504v113h504v168h-504z" />
<glyph unicode="&#xa6;" horiz-adv-x="612" d="M238 1489v-746h137v746h-137zM238 449v-746h137v746h-137z" />
<glyph unicode="&#xa7;" horiz-adv-x="1034" d="M899 1440v-113q-230 51 -397 51q-135 0 -199.5 -48t-64.5 -144q0 -60 15 -99.5t54.5 -69t92 -49.5t143.5 -44q214 -47 313.5 -136.5t99.5 -250.5q0 -121 -49 -197q-23 -37 -69 -76q1 -1 2 -1.5t2 -1.5t2 -3q102 -86 102 -252q0 -185 -117 -270.5t-342 -85.5 q-74 0 -193 19.5t-194 43.5v113q207 -53 369 -53q178 0 256 52.5t78 172.5q0 65 -11.5 103t-50 68.5t-94.5 50t-162 46.5q-212 49 -306.5 132t-94.5 241q0 126 55 199q38 47 74 69q-5 7 -20 17q-99 88 -99 245q0 90 32.5 157.5t89.5 106t128 56t154 14.5q189 -6 401 -63z M496 797q-67 17 -134 37q-38 -10 -73 -35q-62 -47 -62 -146q0 -59 15 -98t54.5 -68.5t92 -49.5t143.5 -44q109 -23 175 -53q38 20 57 39q49 55 49 149q0 65 -11.5 103t-49.5 69t-94 51t-162 46z" />
<glyph unicode="&#xa8;" horiz-adv-x="1105" d="M336 1628v193h141v-193h-141zM670 1628v193h141v-193h-141z" />
<glyph unicode="&#xa9;" horiz-adv-x="1638" d="M815 -16q-159 0 -299 59t-238 160t-155 240t-57 294t57 293.5t155 239.5t238 160t299 59q209 0 382 -100.5t271.5 -273t98.5 -378.5t-98.5 -379t-271.5 -273.5t-382 -100.5zM815 53q145 0 271.5 51t216 141t141 217.5t51.5 274.5q0 148 -51.5 275.5t-141 216.5 t-215.5 139.5t-272 50.5q-197 0 -351.5 -86.5t-240.5 -242t-86 -353.5q0 -197 85.5 -353t240.5 -243.5t352 -87.5zM809 1151q125 0 254 -39v-76q-118 23 -211 23q-151 0 -214 -78t-63 -240q0 -174 62 -249.5t217 -75.5q109 0 221 28v-77q-121 -41 -270 -41 q-158 0 -246 111.5t-88 303.5q0 187 89 298.5t249 111.5z" />
<glyph unicode="&#xaa;" horiz-adv-x="1024" d="M682 780v62q-142 -68 -279 -68q-101 0 -159 55.5t-58 163.5q0 76 39 129t127 86q85 31 324 31v35q0 82 -60.5 110.5t-179.5 28.5q-104 0 -180 -18v78q95 26 246 26q137 0 216 -53.5t79 -163.5v-502h-115zM459 858q50 0 111.5 17.5t105.5 44.5v241q-200 -4 -254 -22 q-29 -10 -43 -17t-35.5 -22.5t-31 -40t-9.5 -58.5q0 -143 156 -143z" />
<glyph unicode="&#xab;" horiz-adv-x="1021" d="M270 526l265 -454h-107l-315 454l315 457h107zM639 526l264 -454h-106l-316 454l316 457h106z" />
<glyph unicode="&#xac;" horiz-adv-x="1433" d="M1323 1014v-549h-121v432h-1098v117h1219z" />
<glyph unicode="&#xad;" horiz-adv-x="1024" d="M117 698v113h790v-113h-790z" />
<glyph unicode="&#xae;" horiz-adv-x="1638" d="M815 -16q-159 0 -299 59t-238 160t-155 240t-57 294t57 293.5t155 239.5t238 160t299 59q209 0 382 -100.5t271.5 -273t98.5 -378.5t-98.5 -379t-271.5 -273.5t-382 -100.5zM815 53q145 0 271.5 51t216 141t141 217.5t51.5 274.5q0 148 -51.5 275.5t-141 216.5 t-215.5 139.5t-272 50.5q-197 0 -351.5 -86.5t-240.5 -242t-86 -353.5q0 -197 85.5 -353t240.5 -243.5t352 -87.5zM649 627v-291h-98v811h299q139 0 212 -63t73 -187q0 -193 -168 -252l163 -309h-102l-151 291h-228zM649 715h217q178 0 178 182q0 83 -47.5 122.5 t-150.5 39.5h-197v-344z" />
<glyph unicode="&#xaf;" horiz-adv-x="1024" d="M0 1622v113h1024v-113h-1024z" />
<glyph unicode="&#xb0;" horiz-adv-x="913" d="M674 1210q0 -107 -54.5 -163t-162.5 -56q-103 0 -157 56.5t-54 162.5q0 217 211 217q217 0 217 -217zM780 1208q0 324 -323 324q-163 0 -242.5 -83.5t-79.5 -240.5q0 -156 79.5 -238.5t242.5 -82.5q323 0 323 321z" />
<glyph unicode="&#xb1;" horiz-adv-x="1085" d="M100 700v113h375v393h137v-393h373v-113h-373v-397h-137v397h-375zM100 43v113h885v-113h-885z" />
<glyph unicode="&#xb2;" horiz-adv-x="614" d="M51 791v98l193 180q81 75 129.5 156t48.5 149q0 76 -37.5 110t-128.5 34q-80 0 -199 -29v92q43 17 108 29t107 12q143 0 211 -58.5t68 -181.5q0 -47 -15.5 -94t-37 -84t-58.5 -80t-65.5 -71.5t-73.5 -69.5l-92 -90h371l-35 -102h-494z" />
<glyph unicode="&#xb3;" horiz-adv-x="634" d="M549 1415q0 -117 -137 -186q83 -25 126.5 -75.5t43.5 -137.5q0 -236 -283 -236q-126 0 -258 37v92q111 -24 244 -24q86 0 123.5 31t42.5 100q0 88 -56.5 118.5t-167.5 30.5h-49v103h49q193 0 193 143q0 55 -31 80.5t-104 26.5q-99 0 -215 -29v92q47 17 109.5 29t105.5 12 q136 0 200 -49.5t64 -157.5z" />
<glyph unicode="&#xb4;" horiz-adv-x="573" d="M123 1628h113l215 260h-201z" />
<glyph unicode="&#xb5;" horiz-adv-x="1198" d="M143 1055l140 41v-813q0 -100 60 -145.5t179 -45.5q58 0 134.5 18t116.5 32t140 51v882h142v-1075h-142v96q-263 -110 -434 -110q-63 0 -129 16q-33 8 -67 25v-416h-140v1444z" />
<glyph unicode="&#xb6;" horiz-adv-x="1290" d="M1085 0v1489h-528q-101 0 -179 -20.5t-128.5 -56.5t-82.5 -89.5t-45 -113.5t-13 -134q0 -92 21.5 -161.5t70 -124.5t132.5 -87t202 -40v-662h141v1356h268v-1356h141z" />
<glyph unicode="&#xb7;" horiz-adv-x="643" d="M260 563v195h141v-195h-141z" />
<glyph unicode="&#xb8;" horiz-adv-x="649" d="M522 -233q0 -166 -188 -166q-97 0 -178 20v92q77 -14 161 -14q51 0 75 15.5t24 52.5q0 31 -17.5 43t-56.5 12h-158l58 225h104l-22 -137h41q157 0 157 -143z" />
<glyph unicode="&#xb9;" horiz-adv-x="462" d="M225 791v690l-170 -33v92l291 70v-819h-121z" />
<glyph unicode="&#xba;" horiz-adv-x="1024" d="M508 752q323 0 323 368q0 381 -323 381q-330 0 -330 -381q0 -368 330 -368zM508 1413q192 0 192 -293q0 -278 -192 -278q-102 0 -151.5 66t-49.5 212q0 152 50 222.5t151 70.5z" />
<glyph unicode="&#xbb;" horiz-adv-x="1021" d="M745 526l-264 -454h107l315 454l-315 457h-107zM377 526l-264 -454h106l316 454l-316 457h-106z" />
<glyph unicode="&#xbc;" horiz-adv-x="1843" d="M1434 2v191h-422v94l387 590h135v-592h172l-41 -92h-131v-191h-100zM1122 285h312v471zM236 598v764l-160 -41v80l276 84v-887h-116zM279 0l1019 1489h117l-1018 -1489h-118z" />
<glyph unicode="&#xbd;" horiz-adv-x="1843" d="M240 598v764l-162 -39v80l278 82v-887h-116zM229 0l1020 1489h117l-1018 -1489h-119zM1190 0v80l211 205q103 98 153 172.5t50 154.5q0 168 -179 168q-117 0 -213 -51v86q96 59 234 59q133 0 206.5 -66t73.5 -185q0 -101 -58 -187.5t-181 -197.5l-158 -144v-2h436 l-41 -92h-534z" />
<glyph unicode="&#xbe;" horiz-adv-x="1843" d="M311 588q-148 0 -241 49v90q103 -47 215 -47q107 0 164 42t57 126q0 78 -53.5 118t-147.5 40h-90v88h78q88 0 138 38.5t50 110.5q0 135 -186 135q-111 0 -195 -37v86q101 46 226 46t197.5 -55t72.5 -156q0 -152 -158 -201v-4q191 -36 191 -217q0 -118 -85 -185t-233 -67z M385 0l1020 1489h117l-1018 -1489h-119zM1499 2v191h-422v94l387 590h135v-592h173l-41 -92h-132v-191h-100zM1188 285h311v471z" />
<glyph unicode="&#xbf;" horiz-adv-x="962" d="M621 1075v-192h-142v192h142zM604 686v-82q0 -27 -4.5 -51t-10.5 -42.5t-20.5 -40.5t-23.5 -34.5t-32.5 -35.5t-35.5 -33.5t-43 -37t-45 -38.5q-79 -75 -119.5 -141t-40.5 -164q0 -150 73.5 -214.5t244.5 -64.5q142 0 315 45v-92q-208 -66 -362 -66q-85 0 -155.5 19 t-127 57.5t-88 104.5t-31.5 153q0 148 48.5 245t168.5 202q21 19 51.5 44.5t45.5 38.5t34.5 33.5t28 37.5t15 41.5t6.5 54.5v61h108z" />
<glyph unicode="&#xc0;" horiz-adv-x="1333" d="M1141 0l-140 403h-669l-137 -403h-140l516 1489h193l516 -1489h-139zM668 1380l-297 -866h594zM811 1628h-102l-215 260h190z" />
<glyph unicode="&#xc1;" horiz-adv-x="1333" d="M1141 0l-140 403h-669l-137 -403h-140l516 1489h193l516 -1489h-139zM668 1380l-297 -866h594zM524 1628h103l215 260h-191z" />
<glyph unicode="&#xc2;" horiz-adv-x="1333" d="M1141 0l-140 403h-669l-137 -403h-140l516 1489h193l516 -1489h-139zM668 1380l-297 -866h594zM600 1888h137l217 -260h-133l-153 193l-144 -193h-133z" />
<glyph unicode="&#xc3;" horiz-adv-x="1333" d="M1141 0l-140 403h-669l-137 -403h-140l516 1489h193l516 -1489h-139zM668 1380l-297 -866h594zM690 1765q56 -45 105 -45q39 0 53.5 24t21.5 83h105q-4 -39 -15.5 -72t-33 -63t-57 -47t-81.5 -17q-74 0 -149 60q-58 47 -104 47q-39 0 -54.5 -24.5t-21.5 -82.5h-105 q4 39 15.5 72t33 63t57 47t81.5 17q71 0 149 -62z" />
<glyph unicode="&#xc4;" horiz-adv-x="1333" d="M1141 0l-140 403h-669l-137 -403h-140l516 1489h193l516 -1489h-139zM668 1380l-297 -866h594zM430 1628v193h141v-193h-141zM764 1628v193h141v-193h-141z" />
<glyph unicode="&#xc5;" horiz-adv-x="1333" d="M1141 0l-140 403h-669l-137 -403h-140l516 1489h193l516 -1489h-139zM668 1380l-297 -866h594zM596 1739q0 -29 21 -46.5t51 -17.5t49.5 17.5t19.5 46.5q0 65 -69 65q-32 0 -52 -16t-20 -49zM510 1739q0 67 45 108t113 41q70 0 113.5 -40.5t43.5 -108.5q0 -63 -44 -103.5 t-113 -40.5q-67 0 -112.5 41t-45.5 103z" />
<glyph unicode="&#xc6;" horiz-adv-x="1843" d="M887 0v410h-469l-199 -410h-141l723 1489h954v-113h-735v-565h700l-41 -115h-659v-583h735v-113h-868zM887 1368l-414 -848h414v848z" />
<glyph unicode="&#xc7;" horiz-adv-x="1189" d="M874 -233q0 -166 -188 -166q-97 0 -178 20v92q77 -14 162 -14q51 0 74.5 15.5t23.5 52.5q0 31 -17.5 43t-56.5 12h-157l43 176q-86 12 -154 47q-309 164 -309 698q0 760 571 760q226 0 420 -61v-94q-198 41 -381 41q-241 0 -352 -164t-111 -482q0 -639 465 -639 q142 0 379 46v-99q-217 -61 -420 -61h-2l-10 -80h41q157 0 157 -143z" />
<glyph unicode="&#xc8;" horiz-adv-x="1230" d="M156 0v1489h974v-113h-833v-565h799l-41 -115h-758v-583h833v-113h-974zM739 1628h-102l-215 260h190z" />
<glyph unicode="&#xc9;" horiz-adv-x="1230" d="M156 0v1489h974v-113h-833v-565h799l-41 -115h-758v-583h833v-113h-974zM524 1628h103l215 260h-191z" />
<glyph unicode="&#xca;" horiz-adv-x="1230" d="M156 0v1489h974v-113h-833v-565h799l-41 -115h-758v-583h833v-113h-974zM600 1888h137l217 -260h-133l-153 193l-144 -193h-133z" />
<glyph unicode="&#xcb;" horiz-adv-x="1230" d="M156 0v1489h974v-113h-833v-565h799l-41 -115h-758v-583h833v-113h-974zM430 1628v193h141v-193h-141zM764 1628v193h141v-193h-141z" />
<glyph unicode="&#xcc;" horiz-adv-x="495" d="M178 0v1489h141v-1489h-141zM348 1628h-102l-215 260h190z" />
<glyph unicode="&#xcd;" horiz-adv-x="495" d="M178 0v1489h141v-1489h-141zM158 1628h102l215 260h-190z" />
<glyph unicode="&#xce;" horiz-adv-x="495" d="M178 0v1489h141v-1489h-141zM176 1888h137l217 -260h-133l-153 193l-144 -193h-133z" />
<glyph unicode="&#xcf;" horiz-adv-x="620" d="M240 0v1489h141v-1489h-141zM74 1628v193h141v-193h-141zM408 1628v193h141v-193h-141z" />
<glyph unicode="&#xd0;" horiz-adv-x="1626" d="M82 700v113h272v676h523q135 0 235 -33t165 -92t104 -150.5t55 -197.5t16 -244q0 -102 -7.5 -186.5t-25 -165.5t-46.5 -143.5t-73.5 -115.5t-104 -88t-139.5 -54t-179 -19h-523v700h-272zM1305 772q0 82 -5 147t-17.5 129.5t-34 112.5t-56 90t-81.5 68.5t-111.5 41.5 t-145.5 15h-360v-563h356l-43 -113h-313v-587h360q112 0 194 35t130.5 92t77.5 145t39 178.5t10 208.5z" />
<glyph unicode="&#xd1;" horiz-adv-x="1437" d="M160 0v1489h211l776 -1374v1374h131v-1489h-211l-778 1368v-1368h-129zM774 1765q56 -45 105 -45q39 0 53.5 24t21.5 83h105q-4 -39 -15.5 -72t-33 -63t-57 -47t-81.5 -17q-74 0 -149 60q-58 47 -105 47q-39 0 -53.5 -24t-21.5 -83h-105q4 39 15.5 72t33 63t57 47 t81.5 17q71 0 149 -62z" />
<glyph unicode="&#xd2;" horiz-adv-x="1406" d="M700 100q125 0 209.5 36.5t136.5 116t74.5 196t22.5 286.5q0 333 -101 495.5t-342 162.5q-238 0 -337 -160.5t-99 -497.5q0 -333 98 -484t338 -151zM700 -10q-161 0 -273 46t-180.5 141.5t-99 231t-30.5 326.5q0 192 30 331t97.5 239t180.5 149t275 49t275.5 -49 t182 -149t99.5 -239t31 -331q0 -193 -30.5 -329t-99.5 -231t-182 -140t-276 -45zM811 1628h-102l-215 260h190z" />
<glyph unicode="&#xd3;" horiz-adv-x="1406" d="M700 100q125 0 209.5 36.5t136.5 116t74.5 196t22.5 286.5q0 333 -101 495.5t-342 162.5q-238 0 -337 -160.5t-99 -497.5q0 -333 98 -484t338 -151zM700 -10q-161 0 -273 46t-180.5 141.5t-99 231t-30.5 326.5q0 192 30 331t97.5 239t180.5 149t275 49t275.5 -49 t182 -149t99.5 -239t31 -331q0 -193 -30.5 -329t-99.5 -231t-182 -140t-276 -45zM565 1628h103l215 260h-191z" />
<glyph unicode="&#xd4;" horiz-adv-x="1406" d="M700 100q125 0 209.5 36.5t136.5 116t74.5 196t22.5 286.5q0 333 -101 495.5t-342 162.5q-238 0 -337 -160.5t-99 -497.5q0 -333 98 -484t338 -151zM700 -10q-161 0 -273 46t-180.5 141.5t-99 231t-30.5 326.5q0 192 30 331t97.5 239t180.5 149t275 49t275.5 -49 t182 -149t99.5 -239t31 -331q0 -193 -30.5 -329t-99.5 -231t-182 -140t-276 -45zM633 1888h137l217 -260h-133l-154 193l-143 -193h-133z" />
<glyph unicode="&#xd5;" horiz-adv-x="1406" d="M700 100q125 0 209.5 36.5t136.5 116t74.5 196t22.5 286.5q0 333 -101 495.5t-342 162.5q-238 0 -337 -160.5t-99 -497.5q0 -333 98 -484t338 -151zM700 -10q-161 0 -273 46t-180.5 141.5t-99 231t-30.5 326.5q0 192 30 331t97.5 239t180.5 149t275 49t275.5 -49 t182 -149t99.5 -239t31 -331q0 -193 -30.5 -329t-99.5 -231t-182 -140t-276 -45zM723 1765q56 -45 104 -45q39 0 54.5 24.5t21.5 82.5h105q-4 -39 -15.5 -72t-33 -63t-57 -47t-81.5 -17q-74 0 -149 60q-58 47 -105 47q-39 0 -53.5 -24t-21.5 -83h-105q6 53 23.5 95t59.5 73 t103 31q72 0 150 -62z" />
<glyph unicode="&#xd6;" horiz-adv-x="1406" d="M700 100q125 0 209.5 36.5t136.5 116t74.5 196t22.5 286.5q0 333 -101 495.5t-342 162.5q-238 0 -337 -160.5t-99 -497.5q0 -333 98 -484t338 -151zM700 -10q-161 0 -273 46t-180.5 141.5t-99 231t-30.5 326.5q0 192 30 331t97.5 239t180.5 149t275 49t275.5 -49 t182 -149t99.5 -239t31 -331q0 -193 -30.5 -329t-99.5 -231t-182 -140t-276 -45zM463 1628v193h141v-193h-141zM797 1628v193h141v-193h-141z" />
<glyph unicode="&#xd7;" horiz-adv-x="1085" d="M913 1206l-370 -377l-371 379l-82 -80l373 -378l-375 -381l84 -80l371 379l370 -377l82 80l-372 377l372 378z" />
<glyph unicode="&#xd8;" horiz-adv-x="1406" d="M1305 1581l-154 -264l6 -12q131 -184 131 -570q0 -193 -30.5 -329t-99.5 -231t-182 -140t-276 -45q-159 0 -274 47q-3 1 -8 3t-8 3l-115 -197h-133l149 258q-44 40 -65 72q-129 179 -129 559q0 192 30 331t97.5 239t180.5 149t275 49q166 0 277 -51q39 -18 86 -49 l102 178h140zM358 256q5 -9 23 -31l614 1061q-41 41 -86 64q-82 43 -209 43q-238 0 -337 -160.5t-99 -497.5q0 -331 94 -479zM700 100q125 0 209.5 36.5t136.5 116t74.5 196t22.5 286.5q0 148 -23 283q-14 85 -51 160l-598 -1028q13 -8 23 -11q79 -39 206 -39z" />
<glyph unicode="&#xd9;" horiz-adv-x="1384" d="M297 1489v-1026q0 -183 105 -271t290 -88q188 0 291.5 88t103.5 271v1026h142v-1028q0 -246 -135.5 -358.5t-401.5 -112.5q-264 0 -400 113t-136 358v1028h141zM809 1628h-102l-215 260h190z" />
<glyph unicode="&#xda;" horiz-adv-x="1384" d="M297 1489v-1026q0 -183 105 -271t290 -88q188 0 291.5 88t103.5 271v1026h142v-1028q0 -246 -135.5 -358.5t-401.5 -112.5q-264 0 -400 113t-136 358v1028h141zM565 1628h103l215 260h-191z" />
<glyph unicode="&#xdb;" horiz-adv-x="1384" d="M297 1489v-1026q0 -183 105 -271t290 -88q188 0 291.5 88t103.5 271v1026h142v-1028q0 -246 -135.5 -358.5t-401.5 -112.5q-264 0 -400 113t-136 358v1028h141zM633 1888h137l217 -260h-133l-154 193l-143 -193h-133z" />
<glyph unicode="&#xdc;" horiz-adv-x="1384" d="M297 1489v-1026q0 -183 105 -271t290 -88q188 0 291.5 88t103.5 271v1026h142v-1028q0 -246 -135.5 -358.5t-401.5 -112.5q-264 0 -400 113t-136 358v1028h141zM463 1628v193h141v-193h-141zM797 1628v193h141v-193h-141z" />
<glyph unicode="&#xdd;" horiz-adv-x="1314" d="M731 659v-659h-143v659l-535 830h154l452 -709l451 709h154zM545 1628h102l215 260h-190z" />
<glyph unicode="&#xde;" horiz-adv-x="1314" d="M178 0v1489h141v-219h338q259 0 402 -120.5t143 -369.5q0 -252 -145 -386t-400 -134h-338v-260h-141zM319 383h363q176 0 276.5 98.5t100.5 298.5q0 104 -26.5 177t-78.5 114t-117.5 58.5t-154.5 17.5h-363v-764z" />
<glyph unicode="&#xdf;" horiz-adv-x="1269" d="M827 -10q-157 0 -290 55v100q70 -23 157 -39t144 -12q235 15 235 152q0 29 -18 55.5t-51.5 49t-65 39.5t-77 39.5t-68.5 35.5h2q-98 56 -141.5 118.5t-43.5 151.5q0 138 142 254q14 13 53.5 46t57 50t35 47.5t17.5 61.5q0 103 -78 154t-208 51q-167 0 -254.5 -81 t-87.5 -257v-1061h-142v1079q0 216 127 319t357 103q191 0 309.5 -78t118.5 -217q0 -25 -5.5 -49t-11.5 -42t-20.5 -39.5t-22.5 -33.5t-28.5 -32.5t-27.5 -27t-30 -27t-26 -23.5q-4 -4 -24.5 -22.5t-26 -24t-21.5 -22t-21.5 -24.5t-16 -23.5t-14.5 -27t-7.5 -27.5t-3.5 -32 q0 -57 25 -88t79 -61q25 -13 67.5 -36t61.5 -33.5t52 -29.5t46.5 -29t36.5 -27.5t32.5 -30.5t22.5 -31.5t18 -37t9 -41t4 -48.5q0 -114 -108 -180t-269 -66z" />
<glyph unicode="&#xe0;" d="M868 0v111q-133 -74 -239.5 -99.5t-216.5 -25.5q-144 0 -230 82t-86 233q0 120 54.5 201t187.5 123q76 25 194 36t328 11v55q0 67 -17.5 113.5t-47 74t-83 42.5t-110 19.5t-143.5 4.5q-127 -4 -266 -27v95q184 38 374 38q196 0 315 -80t119 -237v-770h-133zM504 88 q84 0 180 32.5t176 84.5v377q-285 0 -436 -43q-89 -28 -133.5 -79.5t-44.5 -144.5q0 -227 258 -227zM688 1229h-102l-215 260h190z" />
<glyph unicode="&#xe1;" d="M868 0v111q-133 -74 -239.5 -99.5t-216.5 -25.5q-144 0 -230 82t-86 233q0 120 54.5 201t187.5 123q76 25 194 36t328 11v55q0 67 -17.5 113.5t-47 74t-83 42.5t-110 19.5t-143.5 4.5q-127 -4 -266 -27v95q184 38 374 38q196 0 315 -80t119 -237v-770h-133zM504 88 q84 0 180 32.5t176 84.5v377q-285 0 -436 -43q-89 -28 -133.5 -79.5t-44.5 -144.5q0 -227 258 -227zM483 1229h103l215 260h-191z" />
<glyph unicode="&#xe2;" d="M868 0v111q-133 -74 -239.5 -99.5t-216.5 -25.5q-144 0 -230 82t-86 233q0 120 54.5 201t187.5 123q76 25 194 36t328 11v55q0 67 -17.5 113.5t-47 74t-83 42.5t-110 19.5t-143.5 4.5q-127 -4 -266 -27v95q184 38 374 38q196 0 315 -80t119 -237v-770h-133zM504 88 q84 0 180 32.5t176 84.5v377q-285 0 -436 -43q-89 -28 -133.5 -79.5t-44.5 -144.5q0 -227 258 -227zM506 1489h137l217 -260h-133l-154 192l-143 -192h-133z" />
<glyph unicode="&#xe3;" d="M868 0v111q-133 -74 -239.5 -99.5t-216.5 -25.5q-144 0 -230 82t-86 233q0 120 54.5 201t187.5 123q76 25 194 36t328 11v55q0 67 -17.5 113.5t-47 74t-83 42.5t-110 19.5t-143.5 4.5q-127 -4 -266 -27v95q184 38 374 38q196 0 315 -80t119 -237v-770h-133zM504 88 q84 0 180 32.5t176 84.5v377q-285 0 -436 -43q-89 -28 -133.5 -79.5t-44.5 -144.5q0 -227 258 -227zM588 1366q56 -45 104 -45q39 0 54.5 24t21.5 82h104q-4 -39 -15.5 -72t-32.5 -62.5t-56.5 -46.5t-81.5 -17q-75 0 -149 59q-58 47 -105 47q-39 0 -54.5 -24t-21.5 -82h-104 q4 39 15.5 72t32.5 62.5t56.5 46.5t81.5 17q73 0 150 -61z" />
<glyph unicode="&#xe4;" d="M868 0v111q-133 -74 -239.5 -99.5t-216.5 -25.5q-144 0 -230 82t-86 233q0 120 54.5 201t187.5 123q76 25 194 36t328 11v55q0 67 -17.5 113.5t-47 74t-83 42.5t-110 19.5t-143.5 4.5q-127 -4 -266 -27v95q184 38 374 38q196 0 315 -80t119 -237v-770h-133zM504 88 q84 0 180 32.5t176 84.5v377q-285 0 -436 -43q-89 -28 -133.5 -79.5t-44.5 -144.5q0 -227 258 -227zM338 1296v193h141v-193h-141zM672 1296v193h141v-193h-141z" />
<glyph unicode="&#xe5;" d="M868 0v111q-133 -74 -239.5 -99.5t-216.5 -25.5q-144 0 -230 82t-86 233q0 120 54.5 201t187.5 123q76 25 194 36t328 11v55q0 67 -17.5 113.5t-47 74t-83 42.5t-110 19.5t-143.5 4.5q-127 -4 -266 -27v95q184 38 374 38q196 0 315 -80t119 -237v-770h-133zM504 88 q84 0 180 32.5t176 84.5v377q-285 0 -436 -43q-89 -28 -133.5 -79.5t-44.5 -144.5q0 -227 258 -227zM502 1360q0 -29 20.5 -46.5t50.5 -17.5t50 17.5t20 46.5q0 65 -70 65q-71 0 -71 -65zM416 1360q0 68 44.5 108.5t112.5 40.5q70 0 114 -40.5t44 -108.5q0 -63 -44.5 -103 t-113.5 -40q-67 0 -112 40.5t-45 102.5z" />
<glyph unicode="&#xe6;" horiz-adv-x="1843" d="M1292 92q221 0 410 53v-94q-195 -65 -430 -65q-245 0 -354 133q-18 22 -23 31q-56 -40 -100 -64q-188 -100 -406 -100q-143 0 -229 81.5t-86 233.5q0 120 54 201t187 123q77 26 187 36.5t315 10.5v55q0 68 -15.5 114t-42 73.5t-77 42.5t-105 19.5t-141.5 4.5 q-127 -4 -266 -27v95q184 38 375 38q190 0 299 -77q45 -34 71 -78q4 8 23 26q115 129 346 129q463 0 463 -522v-47q0 -35 -2 -49h-784q3 -81 12.5 -137.5t31.5 -104.5t58.5 -76t93 -43.5t135.5 -15.5zM481 88q89 0 195 41q102 43 180 100q-3 10 -14 58q-23 112 -23 239v43 l-2 13q-265 0 -416 -43q-89 -28 -133.5 -79.5t-44.5 -144.5q0 -227 258 -227zM961 567h651q-5 218 -79 316t-249 98q-92 0 -152.5 -23.5t-96 -77.5t-52 -127t-22.5 -186z" />
<glyph unicode="&#xe7;" horiz-adv-x="976" d="M750 -233q0 -166 -189 -166q-97 0 -178 20v92q77 -14 162 -14q51 0 74.5 15.5t23.5 52.5q0 31 -17.5 43t-56.5 12h-157l41 172q-59 10 -101 29q-127 58 -191.5 190.5t-64.5 327.5q0 255 116.5 400.5t350.5 145.5q157 0 326 -57v-88q-134 35 -268 35q-107 0 -182 -29.5 t-118 -88t-62 -136t-19 -182.5q0 -114 19 -194.5t63 -139t119 -87t184 -28.5q131 0 280 37v-88q-159 -57 -344 -57l-10 -74h41q158 0 158 -143z" />
<glyph unicode="&#xe8;" d="M592 92q220 0 409 53v-94q-195 -65 -430 -65q-251 0 -362 131t-111 409q0 293 125 427t361 134q463 0 463 -522q0 -55 -3 -96h-804q4 -99 22 -166.5t58 -116.5t106.5 -71.5t165.5 -22.5zM240 567h671q-5 219 -78.5 316.5t-248.5 97.5q-181 0 -256.5 -96.5t-87.5 -317.5z M688 1229h-102l-215 260h190z" />
<glyph unicode="&#xe9;" d="M592 92q220 0 409 53v-94q-195 -65 -430 -65q-251 0 -362 131t-111 409q0 293 125 427t361 134q463 0 463 -522q0 -55 -3 -96h-804q4 -99 22 -166.5t58 -116.5t106.5 -71.5t165.5 -22.5zM240 567h671q-5 219 -78.5 316.5t-248.5 97.5q-181 0 -256.5 -96.5t-87.5 -317.5z M483 1229h103l215 260h-191z" />
<glyph unicode="&#xea;" d="M592 92q220 0 409 53v-94q-195 -65 -430 -65q-251 0 -362 131t-111 409q0 293 125 427t361 134q463 0 463 -522q0 -55 -3 -96h-804q4 -99 22 -166.5t58 -116.5t106.5 -71.5t165.5 -22.5zM240 567h671q-5 219 -78.5 316.5t-248.5 97.5q-181 0 -256.5 -96.5t-87.5 -317.5z M516 1489h137l217 -260h-133l-153 192l-144 -192h-133z" />
<glyph unicode="&#xeb;" d="M592 92q220 0 409 53v-94q-195 -65 -430 -65q-251 0 -362 131t-111 409q0 293 125 427t361 134q463 0 463 -522q0 -55 -3 -96h-804q4 -99 22 -166.5t58 -116.5t106.5 -71.5t165.5 -22.5zM240 567h671q-5 219 -78.5 316.5t-248.5 97.5q-181 0 -256.5 -96.5t-87.5 -317.5z M346 1296v193h141v-193h-141zM680 1296v193h141v-193h-141z" />
<glyph unicode="&#xec;" horiz-adv-x="495" d="M168 0v1075h141v-1075h-141zM330 1229h-103l-215 260h191z" />
<glyph unicode="&#xed;" horiz-adv-x="495" d="M168 0v1075h141v-1075h-141zM147 1229h103l215 260h-191z" />
<glyph unicode="&#xee;" horiz-adv-x="495" d="M168 0v1075h141v-1075h-141zM168 1489h137l217 -260h-133l-153 192l-144 -192h-133z" />
<glyph unicode="&#xef;" horiz-adv-x="528" d="M186 0v1075h142v-1075h-142zM18 1296v193h142v-193h-142zM352 1296v193h142v-193h-142z" />
<glyph unicode="&#xf0;" horiz-adv-x="1122" d="M416 1155l217 105q79 -99 135 -207q-87 34 -207 34q-247 0 -367 -146t-120 -417q0 -256 120.5 -397t366.5 -141q245 0 363 140.5t118 397.5q0 37 -4 99q-9 148 -51 280q-48 146 -125 268q-59 87 -110 146l166 80l-39 73l-185 -90q-50 52 -116 109h-185q99 -74 185 -166 l-199 -96zM563 983q154 0 243 -113.5t89 -345.5q0 -227 -88.5 -331.5t-243.5 -104.5q-166 0 -254 103.5t-88 332.5q0 234 89 346.5t253 112.5z" />
<glyph unicode="&#xf1;" horiz-adv-x="1198" d="M285 0h-140v1055l140 41v-129q285 126 467 118q140 -6 222.5 -92t82.5 -223v-770h-142v770q0 107 -64.5 157t-174.5 50q-58 0 -172.5 -33t-218.5 -82v-862zM629 1366q56 -45 104 -45q39 0 54.5 24t21.5 82h104q-4 -39 -15.5 -72t-32.5 -62.5t-56.5 -46.5t-81.5 -17 q-75 0 -149 59q-58 47 -105 47q-39 0 -54.5 -24t-21.5 -82h-104q4 39 15.5 72t32.5 62.5t56.5 46.5t81.5 17q73 0 150 -61z" />
<glyph unicode="&#xf2;" horiz-adv-x="1165" d="M586 -14q245 0 363 140.5t118 397.5q0 272 -117.5 417.5t-363.5 145.5q-248 0 -368 -146t-120 -417q0 -256 120.5 -397t367.5 -141zM588 983q154 0 243 -113.5t89 -345.5q0 -227 -88.5 -331.5t-243.5 -104.5q-166 0 -254 103.5t-88 332.5q0 234 89 346.5t253 112.5z M688 1229h-102l-215 260h190z" />
<glyph unicode="&#xf3;" horiz-adv-x="1165" d="M586 -14q245 0 363 140.5t118 397.5q0 272 -117.5 417.5t-363.5 145.5q-248 0 -368 -146t-120 -417q0 -256 120.5 -397t367.5 -141zM588 983q154 0 243 -113.5t89 -345.5q0 -227 -88.5 -331.5t-243.5 -104.5q-166 0 -254 103.5t-88 332.5q0 234 89 346.5t253 112.5z M473 1229h102l216 260h-191z" />
<glyph unicode="&#xf4;" horiz-adv-x="1165" d="M586 -14q245 0 363 140.5t118 397.5q0 272 -117.5 417.5t-363.5 145.5q-248 0 -368 -146t-120 -417q0 -256 120.5 -397t367.5 -141zM588 983q154 0 243 -113.5t89 -345.5q0 -227 -88.5 -331.5t-243.5 -104.5q-166 0 -254 103.5t-88 332.5q0 234 89 346.5t253 112.5z M516 1489h137l217 -260h-133l-153 192l-144 -192h-133z" />
<glyph unicode="&#xf5;" horiz-adv-x="1165" d="M586 -14q245 0 363 140.5t118 397.5q0 272 -117.5 417.5t-363.5 145.5q-248 0 -368 -146t-120 -417q0 -256 120.5 -397t367.5 -141zM588 983q154 0 243 -113.5t89 -345.5q0 -227 -88.5 -331.5t-243.5 -104.5q-166 0 -254 103.5t-88 332.5q0 234 89 346.5t253 112.5z M608 1366q56 -45 105 -45q39 0 54 24t21 82h105q-4 -39 -15.5 -72t-32.5 -62.5t-56.5 -46.5t-81.5 -17q-76 0 -150 59q-58 47 -104 47q-39 0 -54.5 -24t-21.5 -82h-105q6 53 24 95t60 72.5t103 30.5q72 0 149 -61z" />
<glyph unicode="&#xf6;" horiz-adv-x="1165" d="M586 -14q245 0 363 140.5t118 397.5q0 272 -117.5 417.5t-363.5 145.5q-248 0 -368 -146t-120 -417q0 -256 120.5 -397t367.5 -141zM588 983q154 0 243 -113.5t89 -345.5q0 -227 -88.5 -331.5t-243.5 -104.5q-166 0 -254 103.5t-88 332.5q0 234 89 346.5t253 112.5z M346 1296v193h141v-193h-141zM680 1296v193h141v-193h-141z" />
<glyph unicode="&#xf7;" horiz-adv-x="1085" d="M78 813v-108h928v108h-928zM469 1044v193h141v-193h-141zM469 289v192h141v-192h-141z" />
<glyph unicode="&#xf8;" horiz-adv-x="1187" d="M141 -72l133 160q41 -36 111 -65q90 -37 219 -37q245 0 363 140.5t118 397.5t-108 404l205 246h-140l-141 -170q-112 83 -297 83q-247 0 -367 -146t-120 -417q0 -117 28 -223q22 -80 60 -135l-197 -238h133zM463 111q-62 24 -107 75l525 629q15 -31 32 -84 q25 -89 25 -207q0 -227 -88.5 -331.5t-243.5 -104.5q-72 0 -143 23zM606 983q74 0 133 -27q43 -18 78 -53l-516 -622q-7 16 -14 41q-23 90 -23 202q0 234 89 346.5t253 112.5z" />
<glyph unicode="&#xf9;" horiz-adv-x="1198" d="M913 1075h142v-1075h-142v96q-263 -110 -434 -110q-71 0 -130 17t-106 53t-73.5 98t-26.5 145v756l140 41v-813q0 -100 60 -145.5t179 -45.5q58 0 134.5 18t116.5 32t140 51v882zM694 1229h-102l-215 260h190z" />
<glyph unicode="&#xfa;" horiz-adv-x="1198" d="M913 1075h142v-1075h-142v96q-263 -110 -434 -110q-71 0 -130 17t-106 53t-73.5 98t-26.5 145v756l140 41v-813q0 -100 60 -145.5t179 -45.5q58 0 134.5 18t116.5 32t140 51v882zM494 1229h102l215 260h-190z" />
<glyph unicode="&#xfb;" horiz-adv-x="1198" d="M913 1075h142v-1075h-142v96q-263 -110 -434 -110q-71 0 -130 17t-106 53t-73.5 98t-26.5 145v756l140 41v-813q0 -100 60 -145.5t179 -45.5q58 0 134.5 18t116.5 32t140 51v882zM543 1489h137l217 -260h-133l-154 192l-143 -192h-133z" />
<glyph unicode="&#xfc;" horiz-adv-x="1198" d="M913 1075h142v-1075h-142v96q-263 -110 -434 -110q-71 0 -130 17t-106 53t-73.5 98t-26.5 145v756l140 41v-813q0 -100 60 -145.5t179 -45.5q58 0 134.5 18t116.5 32t140 51v882zM375 1296v193h141v-193h-141zM709 1296v193h141v-193h-141z" />
<glyph unicode="&#xfd;" horiz-adv-x="1198" d="M901 -31v166q-257 -104 -422 -104q-71 0 -130 17t-106 53t-73.5 98t-26.5 145v711l140 41v-768q0 -100 60 -145.5t179 -45.5q57 0 130 16.5t114 30t135 47.5v844h141v-1149q0 -157 -119 -238t-315 -81q-165 0 -354 39v90q135 -23 246 -23q61 0 104.5 2t88 8.5t74.5 18 t57.5 30.5t43 46t24.5 64.5t9 86.5zM494 1229h102l215 260h-190z" />
<glyph unicode="&#xfe;" horiz-adv-x="1146" d="M643 -4q-143 0 -356 67v-423l-142 -41v1898l142 41v-547q207 98 356 101q120 0 205 -37t134.5 -109.5t72 -168.5t22.5 -224q0 -130 -22.5 -228.5t-72 -174t-134.5 -115t-205 -39.5zM287 895v-729q173 -65 331 -68q74 0 129.5 24.5t89.5 64.5t55 100t28.5 123.5t7.5 142.5 q0 81 -7.5 143t-27.5 118.5t-54 92.5t-88.5 57t-129.5 21q-135 0 -334 -90z" />
<glyph unicode="&#xff;" horiz-adv-x="1198" d="M901 -31v166q-257 -104 -422 -104q-71 0 -130 17t-106 53t-73.5 98t-26.5 145v711l140 41v-768q0 -100 60 -145.5t179 -45.5q57 0 130 16.5t114 30t135 47.5v844h141v-1149q0 -157 -119 -238t-315 -81q-165 0 -354 39v90q135 -23 246 -23q61 0 104.5 2t88 8.5t74.5 18 t57.5 30.5t43 46t24.5 64.5t9 86.5zM373 1296v193h141v-193h-141zM707 1296v193h141v-193h-141z" />
<glyph unicode="&#x152;" horiz-adv-x="2027" d="M688 -10q-161 0 -273.5 46t-181 141.5t-99 231.5t-30.5 326q0 192 30 331t98 239t181 149t275 49q304 0 445 -182v168h796v-113h-655v-565h620l-41 -115h-579v-583h655v-113h-796v158q-137 -168 -445 -168zM688 100q244 0 343 148t99 487q0 165 -22.5 283.5t-73.5 204.5 t-137 128t-209 42q-238 0 -337 -160.5t-99 -497.5q0 -333 98 -484t338 -151z" />
<glyph unicode="&#x153;" horiz-adv-x="1843" d="M1343 92q-145 0 -218 50.5t-99 158.5q-17 74 -20 154v14h788q4 54 4 96q0 522 -463 522q-235 0 -350 -129q-39 -50 -51 -73q-20 36 -35 53q-115 149 -358 149q-248 0 -368 -146t-120 -417q0 -256 120.5 -397t367.5 -141q241 0 358 145q5 7 15.5 20.5t15.5 20.5 q14 -24 35 -53q112 -133 358 -133q235 0 430 65v94q-189 -53 -410 -53zM543 983q145 0 231 -109q82 -101 88 -315v-35q0 -436 -319 -436q-166 0 -254 103.5t-88 332.5q0 234 89 346.5t253 112.5zM1663 567h-655q-2 6 -2 17q6 92 22 168q28 119 99.5 174t207.5 55 q175 0 249 -98t79 -316z" />
<glyph unicode="&#x178;" horiz-adv-x="1314" d="M731 659v-659h-143v659l-535 830h154l452 -709l451 709h154zM430 1628v193h141v-193h-141zM764 1628v193h141v-193h-141z" />
<glyph unicode="&#x2000;" horiz-adv-x="944" />
<glyph unicode="&#x2001;" horiz-adv-x="1888" />
<glyph unicode="&#x2002;" horiz-adv-x="944" />
<glyph unicode="&#x2003;" horiz-adv-x="1888" />
<glyph unicode="&#x2004;" horiz-adv-x="629" />
<glyph unicode="&#x2005;" horiz-adv-x="472" />
<glyph unicode="&#x2006;" horiz-adv-x="314" />
<glyph unicode="&#x2007;" horiz-adv-x="314" />
<glyph unicode="&#x2008;" horiz-adv-x="236" />
<glyph unicode="&#x2009;" horiz-adv-x="377" />
<glyph unicode="&#x200a;" horiz-adv-x="104" />
<glyph unicode="&#x2010;" horiz-adv-x="1085" d="M154 485v113h778v-113h-778z" />
<glyph unicode="&#x2011;" horiz-adv-x="1085" d="M154 485v113h778v-113h-778z" />
<glyph unicode="&#x2012;" horiz-adv-x="1085" d="M154 485v113h778v-113h-778z" />
<glyph unicode="&#x2013;" horiz-adv-x="1138" d="M0 485v113h1139v-113h-1139z" />
<glyph unicode="&#x2014;" horiz-adv-x="1843" d="M0 485v113h1843v-113h-1843z" />
<glyph unicode="&#x2018;" horiz-adv-x="450" d="M348 1489l-106 -445h-162l166 445h102z" />
<glyph unicode="&#x2019;" horiz-adv-x="450" d="M94 1044l107 445h161l-165 -445h-103z" />
<glyph unicode="&#x201a;" horiz-adv-x="532" d="M106 -233l125 444h160l-178 -444h-107z" />
<glyph unicode="&#x201c;" horiz-adv-x="778" d="M336 1489l-107 -445h-161l165 445h103zM702 1489l-106 -445h-162l166 445h102z" />
<glyph unicode="&#x201d;" horiz-adv-x="778" d="M434 1044l107 445h161l-165 -445h-103zM88 1044l107 445h161l-166 -445h-102z" />
<glyph unicode="&#x201e;" horiz-adv-x="716" d="M414 -248l106 445h162l-166 -445h-102zM68 -248l106 445h162l-166 -445h-102z" />
<glyph unicode="&#x2022;" horiz-adv-x="716" d="M166 715q0 85 57 139q57 57 142 57q83 0 137 -57q59 -53 59 -139q0 -87 -59 -140q-54 -57 -137 -57q-85 0 -142 57q-57 54 -57 140z" />
<glyph unicode="&#x2026;" horiz-adv-x="1884" d="M883 0v195h141v-195h-141zM1470 0v195h142v-195h-142zM266 0v195h142v-195h-142z" />
<glyph unicode="&#x202f;" horiz-adv-x="377" />
<glyph unicode="&#x2039;" horiz-adv-x="681" d="M270 526l265 -454h-107l-315 454l315 457h107z" />
<glyph unicode="&#x203a;" horiz-adv-x="681" d="M377 530l-264 453h108l303 -446l-303 -465h-108z" />
<glyph unicode="&#x205f;" horiz-adv-x="472" />
<glyph unicode="&#x20ac;" horiz-adv-x="1208" d="M920 547h-603q62 -443 453 -443q142 0 379 46v-99q-217 -61 -420 -61q-250 0 -387.5 147.5t-171.5 409.5h-168v112h158q-2 27 -2 84q0 62 2 93h-158v112h168q69 555 559 555q226 0 420 -61v-94q-198 41 -381 41q-387 0 -451 -441h603v-112h-613q-2 -31 -2 -93 q0 -57 2 -84h613v-112z" />
<glyph unicode="&#xe000;" horiz-adv-x="1075" d="M0 1075h1075v-1075h-1075v1075z" />
</font>
</defs>
</svg>
